<?xml version="1.0" encoding="UTF-8"?>
<svg id="Layer_2" data-name="Layer 2" xmlns="http://www.w3.org/2000/svg" xmlns:xlink="http://www.w3.org/1999/xlink" viewBox="0 0 347.76 85.44">
  <defs>
    <style>
      .cls-1 {
        fill: url(#pink);
      }
    </style>
    <linearGradient id="pink" x1="0" y1="42.72" x2="347.76" y2="42.72" gradientUnits="userSpaceOnUse">
      <stop offset="0" stop-color="#f8d1b7"/>
      <stop offset="1" stop-color="#f593a4"/>
    </linearGradient>
  </defs>
  <g id="Layer_1-2" data-name="Layer 1">
    <g>
      <path class="cls-1" d="M0,84.72V.72H7.32l57.96,72.96h-3.84V.72h8.76V84.72h-7.32L5.04,11.76h3.84V84.72H0Z"/>
      <path class="cls-1" d="M134.28,85.44c-6.32,0-12.18-1.06-17.58-3.18-5.4-2.12-10.08-5.12-14.04-9-3.96-3.88-7.04-8.4-9.24-13.56-2.2-5.16-3.3-10.82-3.3-16.98s1.1-11.82,3.3-16.98c2.2-5.16,5.28-9.68,9.24-13.56,3.96-3.88,8.62-6.88,13.98-9,5.36-2.12,11.24-3.18,17.64-3.18s12.16,1.06,17.52,3.18c5.36,2.12,10.02,5.1,13.98,8.94,3.96,3.84,7.04,8.36,9.24,13.56,2.2,5.2,3.3,10.88,3.3,17.04s-1.1,11.84-3.3,17.04c-2.2,5.2-5.28,9.72-9.24,13.56-3.96,3.84-8.62,6.82-13.98,8.94-5.36,2.12-11.2,3.18-17.52,3.18Zm0-7.92c5.04,0,9.7-.86,13.98-2.58,4.28-1.72,8-4.16,11.16-7.32s5.62-6.84,7.38-11.04c1.76-4.2,2.64-8.82,2.64-13.86s-.88-9.66-2.64-13.86c-1.76-4.2-4.22-7.88-7.38-11.04-3.16-3.16-6.88-5.6-11.16-7.32-4.28-1.72-8.94-2.58-13.98-2.58s-9.72,.86-14.04,2.58c-4.32,1.72-8.08,4.16-11.28,7.32-3.2,3.16-5.68,6.84-7.44,11.04-1.76,4.2-2.64,8.82-2.64,13.86s.88,9.56,2.64,13.8c1.76,4.24,4.24,7.94,7.44,11.1,3.2,3.16,6.96,5.6,11.28,7.32,4.32,1.72,9,2.58,14.04,2.58Z"/>
      <path class="cls-1" d="M232.08,85.44c-10.72,0-19.16-3.08-25.32-9.24-6.16-6.16-9.24-15.28-9.24-27.36V.72h8.88V48.48c0,9.92,2.24,17.24,6.72,21.96,4.48,4.72,10.8,7.08,18.96,7.08s14.6-2.36,19.08-7.08c4.48-4.72,6.72-12.04,6.72-21.96V.72h8.64V48.84c0,12.08-3.06,21.2-9.18,27.36-6.12,6.16-14.54,9.24-25.26,9.24Z"/>
      <path class="cls-1" d="M316.44,85.44c-6.24,0-12.22-1.02-17.94-3.06-5.72-2.04-10.14-4.66-13.26-7.86l3.48-6.84c2.96,2.88,6.94,5.3,11.94,7.26,5,1.96,10.26,2.94,15.78,2.94s9.58-.66,12.9-1.98c3.32-1.32,5.76-3.1,7.32-5.34,1.56-2.24,2.34-4.72,2.34-7.44,0-3.28-.94-5.92-2.82-7.92-1.88-2-4.34-3.58-7.38-4.74-3.04-1.16-6.4-2.18-10.08-3.06-3.68-.88-7.36-1.82-11.04-2.82-3.68-1-7.06-2.34-10.14-4.02-3.08-1.68-5.56-3.9-7.44-6.66-1.88-2.76-2.82-6.38-2.82-10.86,0-4.16,1.1-7.98,3.3-11.46,2.2-3.48,5.58-6.28,10.14-8.4,4.56-2.12,10.4-3.18,17.52-3.18,4.72,0,9.4,.66,14.04,1.98,4.64,1.32,8.64,3.14,12,5.46l-3,7.08c-3.6-2.4-7.42-4.16-11.46-5.28-4.04-1.12-7.94-1.68-11.7-1.68-5.04,0-9.2,.68-12.48,2.04-3.28,1.36-5.7,3.18-7.26,5.46-1.56,2.28-2.34,4.86-2.34,7.74,0,3.28,.94,5.92,2.82,7.92,1.88,2,4.36,3.56,7.44,4.68,3.08,1.12,6.46,2.12,10.14,3,3.68,.88,7.34,1.84,10.98,2.88,3.64,1.04,7,2.38,10.08,4.02,3.08,1.64,5.56,3.82,7.44,6.54,1.88,2.72,2.82,6.28,2.82,10.68,0,4.08-1.12,7.86-3.36,11.34-2.24,3.48-5.66,6.28-10.26,8.4-4.6,2.12-10.5,3.18-17.7,3.18Z"/>
    </g>
  </g>
</svg>