<?xml version="1.0" standalone="no"?>
<!DOCTYPE svg PUBLIC "-//W3C//DTD SVG 20010904//EN"
 "http://www.w3.org/TR/2001/REC-SVG-20010904/DTD/svg10.dtd">
<svg version="1.0" xmlns="http://www.w3.org/2000/svg"
 width="150.000000pt" height="150.000000pt" viewBox="0 0 150.000000 150.000000"
 preserveAspectRatio="xMidYMid meet">

<g transform="translate(0.000000,150.000000) scale(0.100000,-0.100000)"
fill="#000000" stroke="none">
<path d="M518 1264 c-15 -15 -8 -152 11 -213 10 -34 17 -61 14 -61 -3 0 -27
16 -54 36 -56 41 -60 33 -24 -44 38 -82 84 -143 120 -157 28 -12 31 -18 27
-44 l-4 -30 -42 21 c-22 11 -61 34 -86 51 l-45 30 50 -52 c28 -29 69 -64 93
-78 39 -23 50 -25 118 -20 l74 5 0 -28 c0 -16 -7 -30 -16 -34 -29 -11 -148 -6
-204 9 -30 8 -57 15 -60 14 -15 0 74 -41 127 -58 l63 -20 75 27 c75 27 77 27
91 7 13 -18 12 -21 -23 -39 -25 -13 -66 -21 -123 -24 -89 -6 -81 -19 13 -21
26 -1 47 -5 47 -10 0 -5 -23 -48 -51 -94 -45 -75 -49 -87 -38 -106 12 -17 10
-24 -11 -46 -13 -13 -46 -37 -74 -51 -46 -23 -48 -25 -16 -19 19 4 56 18 81
30 36 19 48 31 58 63 9 27 18 39 27 35 8 -3 14 -12 14 -20 0 -20 -28 -73 -54
-102 l-21 -24 22 12 c38 20 73 75 73 114 0 28 4 37 16 37 14 0 16 -9 12 -50
-6 -64 7 -55 23 15 11 48 16 56 43 65 45 14 103 66 126 110 10 20 24 74 29
119 12 92 15 101 39 101 15 1 14 3 -3 16 -20 15 -68 15 -109 -2 -17 -7 -18 -2
-13 67 3 41 9 85 13 98 5 18 2 28 -11 37 -16 12 -16 18 -6 60 7 26 19 61 28
78 15 30 15 30 -2 16 -10 -8 -30 -41 -45 -73 l-28 -57 -15 37 -15 38 -8 -30
c-8 -30 -10 -124 -3 -159 8 -37 -19 -26 -40 16 l-22 43 6 -38 c9 -59 24 -84
66 -112 26 -17 36 -30 33 -40 -17 -42 -142 113 -191 237 -20 49 -32 67 -43 65
-8 -3 -22 -6 -30 -8 -25 -6 -80 116 -88 195 -4 37 -10 64 -14 60z m398 -674
l27 -11 -34 -25 c-40 -30 -107 -64 -129 -64 -8 0 12 25 45 55 33 30 61 54 62
55 1 0 14 -5 29 -10z"/>
</g>
</svg>
